<svg width="326" height="326" viewBox="0 0 326 326" xmlns="http://www.w3.org/2000/svg">
  <path d="M127.773 130.955c-10.107 0-16.796-6.25-16.796-15.771 0-9.229 6.591-14.746 18.212-15.284l15.235-.683v-4.98c0-7.569-4.346-11.67-12.403-11.67-6.64 0-11.23 2.831-12.695 7.91h-6.347C113.955 82.615 121.865 77 132.02 77c11.915 0 18.848 6.25 18.848 16.943v36.133h-6.152v-8.3h-.684c-2.49 5.908-8.3 9.18-16.26 9.18zm1.563-5.664c8.496 0 15.088-5.86 15.088-13.428v-7.324l-14.795.635c-7.861.342-12.06 3.857-12.06 10.01 0 6.25 4.492 10.107 11.767 10.107zm85.693-47.852v52.588h-6.103v-9.472h-.635c-2.88 6.64-9.033 10.351-17.187 10.351-11.475 0-17.676-6.787-17.676-19.287V77.44h6.396v32.569c0 10.303 4.15 15.137 12.988 15.137 9.424 0 15.82-6.69 15.82-16.456V77.44h6.397zM124.16 182.768h6.397v13.671h22.021v5.42h-22.021v31.787c0 6.495 4.492 10.01 12.841 10.01 3.614 0 7.471-.146 9.18-.39v5.468c-1.562.293-6.494.586-9.521.586-12.647 0-18.897-5.127-18.897-15.478v-31.983H110v-5.42h14.16v-13.671zm70.069 67.138c-13.575 0-22.266-9.082-22.266-23.242v-7.812c0-14.16 8.691-23.243 22.266-23.243 13.574 0 22.265 9.082 22.265 23.243v7.812c0 14.16-8.691 23.242-22.265 23.242zm0-48.584c-9.766 0-15.87 6.983-15.87 18.36v6.152c0 11.377 6.104 18.36 15.87 18.36 9.765 0 15.869-6.983 15.869-18.36v-6.152c0-11.377-6.104-18.36-15.87-18.36z" fill="currentColor" fill-rule="evenodd"/>
</svg>
