<svg width="326" height="326" viewBox="0 0 326 326" xmlns="http://www.w3.org/2000/svg">
  <path d="M61.16 139.535V92.367H47v-5.42h14.16v-6.054c0-9.327 6.543-14.258 19.043-14.258 3.711 0 9.229.342 11.328.683v5.371c-2.783-.341-7.763-.585-11.328-.585-8.3 0-12.646 3.076-12.646 8.984v5.86H91.53v5.42H67.557v47.167H61.16zm64.453.928c-10.107 0-16.797-6.25-16.797-15.772 0-9.228 6.592-14.746 18.213-15.283l15.235-.683v-4.98c0-7.57-4.346-11.67-12.403-11.67-6.64 0-11.23 2.831-12.695 7.91h-6.348c.977-7.862 8.887-13.477 19.043-13.477 11.914 0 18.848 6.25 18.848 16.943v36.133h-6.152v-8.3h-.684c-2.49 5.907-8.3 9.179-16.26 9.179zm1.563-5.664c8.496 0 15.088-5.86 15.088-13.428v-7.324l-14.795.635c-7.862.341-12.06 3.857-12.06 10.01 0 6.25 4.491 10.107 11.767 10.107zm87.793 4.736h-42.92v-5.176h18.506V71.176H171.95V66h25v68.36h18.018v5.175zm61.816 0h-42.92v-5.176h18.506V71.176h-18.603V66h25v68.36h18.017v5.175zM70.78 259.415c-7.47 0-13.086-2.93-16.162-8.448h-.879v7.568h-6.103V185h6.396v28.71h.88c2.49-5.517 8.251-8.642 15.868-8.642 12.207 0 20.508 8.985 20.508 22.12v10.107c0 13.135-8.3 22.12-20.508 22.12zm-1.416-5.714c9.424 0 15.528-7.08 15.528-17.92v-7.031c0-10.84-6.104-17.92-15.528-17.92-9.375 0-15.478 7.031-15.478 17.92v7.031c0 10.889 6.103 17.92 15.478 17.92zm56.25 5.762c-10.107 0-16.797-6.25-16.797-15.772 0-9.228 6.592-14.746 18.213-15.283l15.235-.683v-4.98c0-7.57-4.346-11.67-12.403-11.67-6.64 0-11.23 2.831-12.695 7.91h-6.348c.977-7.862 8.887-13.477 19.043-13.477 11.914 0 18.848 6.25 18.848 16.943v36.133h-6.152v-8.3h-.684c-2.49 5.907-8.3 9.179-16.26 9.179zm1.563-5.664c8.496 0 15.088-5.86 15.088-13.428v-7.324l-14.795.635c-7.862.341-12.06 3.857-12.06 10.01 0 6.25 4.491 10.107 11.767 10.107zm86.084-32.373h-6.348c-1.074-6.25-6.885-10.596-14.062-10.596-10.01 0-15.577 6.69-15.577 18.75v5.322c0 12.06 5.567 18.75 15.577 18.75 7.177 0 12.988-4.345 14.062-10.595h6.348c-1.367 9.863-9.375 16.357-20.264 16.357-13.818 0-22.119-8.789-22.119-23.437v-7.471c0-14.649 8.3-23.438 22.12-23.438 10.888 0 18.896 6.494 20.263 16.358zm65.38 37.11h-7.714l-19.043-27.833-8.106 7.91v19.922h-6.396V185h6.396v45.703h.586l24.707-24.756h8.106l-20.801 20.362 22.266 32.226z" fill="currentColor" fill-rule="evenodd"/>
</svg>
