<svg width="320" height="320" viewBox="0 0 320 320" xmlns="http://www.w3.org/2000/svg">
  <g fill="none" fill-rule="evenodd">
    <path d="M68.142 52.056c9.396-1.515 29.798 27.762 45.809 57.699 18.907-8.164 75.199-7.859 97.664 0 4.799-15.898 28.706-58.455 38.546-57.699 4.065.09 13.145 32.285 23.568 96.695 2.793 17.259 6.883 48.36 12.271 93.305C245.489 260.019 203.995 269 161.518 269c-42.477 0-84.983-8.981-127.518-26.944 16.497-125.657 27.878-188.99 34.142-190z" stroke="#EEE" stroke-width="5" fill="currentColor"/>
    <circle stroke="#EEE" fill="#EEE" cx="226" cy="184" r="15"/>
    <circle stroke="#EEE" fill="#EEE" cx="103" cy="184" r="15"/>
    <path d="M163 214.042c2.067 0 4.637 6.54 10.108 6.54 4.567.16 5.383-1.65 7.074-1.677 1.656 0 1.818 1.174 1.818 1.677.027 2.166-5.347 3.686-8.349 3.418-7.475.101-9.703-5.451-10.651-5.451-.91 0-3.833 5.451-10.194 5.451-7.143-.113-8.799-1.471-8.799-3.099.01-.783.802-1.54 1.685-1.505 1.39-.041 4.576 1.027 7.35 1.038 3.585-.016 8.163-6.392 9.958-6.392z" fill="#FFF"/>
  </g>
</svg>
